<?xml version="1.0" encoding="UTF-8" standalone="no"?>
<!DOCTYPE svg PUBLIC "-//W3C//DTD SVG 1.1//EN" "http://www.w3.org/Graphics/SVG/1.1/DTD/svg11.dtd">
<svg width="100%" height="100%" viewBox="0 0 124 124" version="1.1" xmlns="http://www.w3.org/2000/svg" xmlns:xlink="http://www.w3.org/1999/xlink" xml:space="preserve" xmlns:serif="http://www.serif.com/" style="fill-rule:evenodd;clip-rule:evenodd;stroke-linecap:round;stroke-linejoin:round;stroke-miterlimit:1.5;">
    <rect id="Artboard1" x="0" y="0" width="124" height="124" style="fill:none;"/>
    <g id="Artboard11" serif:id="Artboard1">
        <path d="M2.545,50.969C5.011,46.047 10.079,51.779 15.428,57.948C17.675,60.539 38.185,74.847 56.763,85.862C69.782,93.582 81.552,99.372 84.678,100.893C94.446,105.649 104.525,110.522 117.96,113.777C129.457,116.562 111.678,123.211 94.34,113.777C91.993,112.499 11.936,70.282 4.155,57.948C2.652,55.565 2.078,51.902 2.545,50.969Z" style="fill:none;stroke:white;stroke-width:1px;"/>
        <path d="M84.678,100.893C85.387,98.454 85.194,96.262 83.604,94.451C94.888,81.716 97.378,68.826 92.193,55.801C97.391,53.081 101.937,49.999 105.076,46.138C101.832,40.737 92.878,41.65 83.604,42.917C84.405,37.32 84.661,30.821 83.604,25.739C81.103,17.516 76.335,13.23 70.184,11.537C67.398,10.771 64.329,10.536 61.058,10.708C55.655,11.51 50.349,14.192 47.204,18.761C46.222,20.187 45.451,21.797 44.953,23.592C44.151,26.485 43.51,31.921 46.027,37.549C48.243,42.503 52.035,45.527 55.69,48.285C51.321,50.818 46.127,50.782 40.659,51.506C43.272,54.226 46.754,56.752 51.395,59.022C44.918,60.462 42.364,65.001 42.806,71.905C40.04,72.083 37.989,72.469 36.364,72.979L48.174,80.494C47.788,74.049 53.178,74.12 63.205,79.421C70.441,82.9 73.717,89.111 73.941,95.525C76.131,93.827 79.246,92.579 83.604,94.451" style="fill:none;stroke:white;stroke-width:1px;"/>
        <path d="M73.941,95.525L84.678,100.893" style="fill:none;stroke:white;stroke-width:0.97px;"/>
        <ellipse cx="56.226" cy="8.561" rx="3.489" ry="3.221" style="fill:none;stroke:white;stroke-width:0.97px;"/>
        <path d="M61.511,36.475C59.284,29.58 59.685,23.606 66.426,22.518C70.578,21.791 75.152,25.494 75.015,31.107C74.782,40.682 75.316,43.661 77.162,49.359L85.751,66.537C87.55,74.203 86.694,78.6 84.678,81.568C83.307,84.618 80.247,86.267 79.309,85.862C77.187,84.946 76.771,84.049 76.088,83.065C65.959,68.456 51.93,73.093 51.395,70.832C50.043,65.111 52.043,61.539 55.69,59.022C54.713,55.467 54.453,51.895 55.69,48.285" style="fill:none;stroke:white;stroke-width:1px;"/>
        <path d="M61.511,36.475C59.084,35.749 56.912,36.226 55.69,37.549C55.884,31.567 54.271,27.259 50.321,26.813C45.596,26.278 43.846,32.048 46.027,37.549" style="fill:none;stroke:white;stroke-width:1px;"/>
        <path d="M74.478,13.392C64.773,19.717 54.577,22.509 44.953,23.592" style="fill:none;stroke:white;stroke-width:1px;"/>
        <path d="M70.184,11.782C62.635,16.209 54.586,18.539 47.101,19.297" style="fill:none;stroke:white;stroke-width:1px;"/>
        <path d="M62.256,38.261L55.865,39.502C55.66,39.287 55.529,39.041 55.477,38.777C55.251,37.614 56.606,36.371 58.501,36.003C60.396,35.635 62.118,36.28 62.344,37.444C62.395,37.708 62.365,37.985 62.256,38.261Z" style="fill:none;stroke:white;stroke-width:0.97px;"/>
        <path d="M61.808,38.406L56.601,39.328C56.509,39.553 56.481,39.78 56.52,39.997C56.689,40.955 58.08,41.51 59.624,41.237C61.168,40.964 62.284,39.964 62.114,39.006C62.076,38.789 61.972,38.585 61.808,38.406Z" style="fill:none;stroke:white;stroke-width:0.97px;"/>
        <g>
            <ellipse cx="64.39" cy="32.449" rx="4.943" ry="4.563" style="stroke:white;stroke-width:0.97px;"/>
            <path d="M66.269,28.425L60.12,34.273L59.203,33.309L65.352,27.461L66.269,28.425Z" style="fill:white;"/>
            <path d="M67.383,28.423L60.281,35.177L59.984,34.865L67.086,28.111L67.383,28.423Z" style="fill:white;"/>
            <ellipse cx="64.39" cy="32.449" rx="4.943" ry="4.563" style="fill:none;stroke:white;stroke-width:0.97px;"/>
        </g>
        <g>
            <ellipse cx="51.517" cy="35.133" rx="4.943" ry="4.563" style="stroke:white;stroke-width:0.97px;"/>
            <path d="M53.396,31.109L47.246,36.957L46.33,35.993L52.479,30.145L53.396,31.109Z" style="fill:white;"/>
            <path d="M54.509,31.107L47.408,37.861L47.111,37.549L54.213,30.795L54.509,31.107Z" style="fill:white;"/>
            <ellipse cx="51.517" cy="35.133" rx="4.943" ry="4.563" style="fill:none;stroke:white;stroke-width:0.97px;"/>
        </g>
        <path d="M56.763,33.791C57.559,33.285 58.322,33.246 59.203,33.255" style="stroke:white;stroke-width:0.97px;"/>
    </g>
</svg>
